<svg id="Layer_1" enable-background="new 0 0 511.975 511.975" height="512" viewBox="0 0 511.975 511.975" fill="#fff" width="512" xmlns="http://www.w3.org/2000/svg"><g><path d="m445.988 52.402c0-14.003-5.453-27.169-15.355-37.071-20.44-20.439-53.7-20.442-74.143 0l-50.502 50.502-22.929-22.929c-3.906-3.905-10.236-3.905-14.143 0l-30 30c-3.905 3.905-3.905 10.237 0 14.143l22.929 22.929-144.644 144.644c-1.098 1.098-1.925 2.436-2.416 3.909l-9.253 27.76-8.331 8.331c-14.926 14.927-14.927 39.215 0 54.143 14.927 14.927 39.215 14.926 54.142 0l8.331-8.331 27.76-9.253c1.473-.491 2.811-1.318 3.909-2.416l144.645-144.645 22.929 22.929c3.906 3.905 10.237 3.905 14.143 0l30-30c3.905-3.905 3.905-10.237 0-14.143l-22.929-22.929 50.502-50.502c9.902-9.902 15.355-23.067 15.355-37.071zm-184.143 177.573h-91.715l105.858-105.857 45.857 45.857zm104.143-44.142-105.858-105.858 15.857-15.858 105.857 105.858zm50.502-110.502-50.502 50.502-45.858-45.858 50.502-50.502c12.644-12.643 33.216-12.644 45.857 0 12.581 12.07 12.58 33.788.001 45.858z"/><path d="m115.988 371.975c-3.285 0-6.361 1.614-8.228 4.316-6.976 10.099-41.772 61.69-41.772 85.684 0 27.57 22.43 50 50 50s50-22.43 50-50c0-23.994-34.796-75.585-41.772-85.684-1.867-2.702-4.943-4.316-8.228-4.316zm0 120c-16.542 0-30-13.458-30-30 0-10.922 15.607-39.426 30-61.917 14.393 22.491 30 50.995 30 61.917 0 16.542-13.458 30-30 30z"/></g></svg>