<?xml version="1.0" encoding="iso-8859-1"?>
<!-- Generator: Adobe Illustrator 19.0.0, SVG Export Plug-In . SVG Version: 6.00 Build 0)  -->
<svg version="1.1" id="Layer_1" xmlns="http://www.w3.org/2000/svg" xmlns:xlink="http://www.w3.org/1999/xlink" x="0px" y="0px"
	 viewBox="0 0 330 330" style="enable-background:new 0 0 330 330;" xml:space="preserve" fill="#fff">
<path id="XMLID_71_" d="M315,285H201.213l124.393-124.394c5.858-5.858,5.858-15.355,0-21.213l-120-120
	c-5.857-5.858-15.355-5.858-21.213,0l-180,179.999C1.581,202.206,0,206.022,0,210c0,3.978,1.581,7.794,4.393,10.607l90,90
	C97.206,313.419,101.021,315,105,315l60,0c0.003,0,0.005,0,0.008,0L315,315c8.284,0,15-6.716,15-15S323.284,285,315,285z
	 M195,51.213L293.787,150l-86.787,86.787L108.213,138L195,51.213z M36.213,210L87,159.213L185.787,258l-26.999,27H135
	c-0.001,0-0.003,0-0.005,0l-23.782,0L36.213,210z"/>
<g>
</g>
<g>
</g>
<g>
</g>
<g>
</g>
<g>
</g>
<g>
</g>
<g>
</g>
<g>
</g>
<g>
</g>
<g>
</g>
<g>
</g>
<g>
</g>
<g>
</g>
<g>
</g>
<g>
</g>
</svg>
