<svg id="Capa_1" enable-background="new 0 0 512 512" height="512" viewBox="0 0 512 512" width="512" xmlns="http://www.w3.org/2000/svg" fill="#fff"><g><path d="m50.2 263.2 75.899 76.199c29.401 29.101 76.8 29.101 106.201 0l151.8-151.8c5.7-6 5.7-15.599 0-21.299l-160.501-161.799c-2.999-3.001-6.899-4.501-10.799-4.501s-7.8 1.5-10.499 4.501l-80.4 81.099 108.898 36.299c7.8 2.401 12.001 11.1 9.3 18.9-2.399 7.8-10.8 12.001-18.898 9.3l-122.701-40.799-48.3 47.999c-40.2 39.9-17.4 88.8 0 105.901z"/><path d="m50.799 61.899c-7.798-2.699-16.5 1.5-18.898 9.3-2.701 7.8 1.5 16.501 9.3 18.9l57.299 19.201 23.401-23.7z"/><path d="m256 391c-42.568 0-256 2.886-256 60s213.432 61 256 61 256-3.886 256-61-213.432-60-256-60z"/><path d="m421 331c0 16.567 13.431 30 30 30s30-13.433 30-30c0-4.455 0-109.402 0-105 0-72.376-57.371-131.155-128.961-134.39 0 0 53.895 54.067 54.897 55.071 9.001 9.03 14.064 21.247 14.064 33.999z"/></g></svg>