<?xml version="1.0" encoding="iso-8859-1"?>
<!-- Generator: Adobe Illustrator 16.0.0, SVG Export Plug-In . SVG Version: 6.00 Build 0)  -->
<!DOCTYPE svg PUBLIC "-//W3C//DTD SVG 1.1//EN" "http://www.w3.org/Graphics/SVG/1.1/DTD/svg11.dtd">
<svg version="1.1" id="Capa_1" xmlns="http://www.w3.org/2000/svg" xmlns:xlink="http://www.w3.org/1999/xlink" x="0px" y="0px"
	 width="222.185px" height="222.185px" viewBox="0 0 222.185 222.185"  fill="#fff" style="enable-background:new 0 0 222.185 222.185;"
	 xml:space="preserve">
<g>
	<path d="M38.396,194.579h-16.9c-3.258,0-6.311-1.454-8.365-3.989c-1.875-2.301-5.252-2.662-7.562-0.794
		c-2.307,1.875-2.662,5.256-0.79,7.564c4.113,5.062,10.197,7.97,16.717,7.97h16.9c2.974,0,5.375-2.399,5.375-5.376
		C43.772,196.983,41.37,194.579,38.396,194.579z"/>
	<path d="M95.258,22.225c0-2.971-2.404-5.376-5.375-5.376H58.615c-2.975,0-5.375,2.405-5.375,5.376c0,2.974,2.401,5.375,5.375,5.375
		h31.268C92.849,27.6,95.258,25.199,95.258,22.225z"/>
	<path d="M5.375,43.773c2.975,0,5.375-2.449,5.375-5.422c0-5.925,4.828-10.751,10.751-10.751h5.832c2.975,0,5.376-2.401,5.376-5.375
		c0-2.971-2.401-5.376-5.376-5.376h-5.832C9.643,16.849,0,26.492,0,38.351v0.097C0,41.417,2.403,43.773,5.375,43.773z"/>
	<path d="M100.938,194.579H69.67c-2.972,0-5.375,2.404-5.375,5.375c0,2.977,2.404,5.376,5.375,5.376h31.268
		c2.974,0,5.375-2.399,5.375-5.376C106.313,196.983,103.912,194.579,100.938,194.579z"/>
	<path d="M5.375,106.359c2.975,0,5.375-2.401,5.375-5.375V69.716c0-2.972-2.401-5.375-5.375-5.375C2.403,64.341,0,66.745,0,69.716
		v31.269C0,103.958,2.403,106.359,5.375,106.359z"/>
	<path d="M10.75,163.528v-31.271c0-2.971-2.401-5.375-5.375-5.375c-2.971,0-5.375,2.404-5.375,5.375v31.271
		c0,2.971,2.403,5.375,5.375,5.375C8.349,168.903,10.75,166.499,10.75,163.528z"/>
	<path d="M209.01,31.54c1.06,1.297,2.603,1.968,4.163,1.968c1.197,0,2.399-0.398,3.401-1.22c2.294-1.882,2.629-5.273,0.751-7.564
		c-4.105-5.008-10.169-7.88-16.641-7.88h-16.992c-2.973,0-5.376,2.404-5.376,5.375c0,2.974,2.403,5.375,5.376,5.375h16.992
		C203.918,27.6,206.957,29.041,209.01,31.54z"/>
	<path d="M216.811,115.722c-2.973,0-5.375,2.404-5.375,5.375v31.271c0,2.977,2.402,5.376,5.375,5.376
		c2.971,0,5.374-2.399,5.374-5.376v-31.271C222.185,118.131,219.782,115.722,216.811,115.722z"/>
	<path d="M216.811,53.188c-2.973,0-5.375,2.401-5.375,5.375v31.268c0,2.971,2.402,5.376,5.375,5.376
		c2.971,0,5.374-2.405,5.374-5.376V58.564C222.185,55.59,219.782,53.188,216.811,53.188z"/>
	<path d="M163.481,194.579h-31.27c-2.971,0-5.375,2.404-5.375,5.375c0,2.977,2.404,5.376,5.375,5.376h31.27
		c2.972,0,5.376-2.399,5.376-5.376C168.857,196.983,166.453,194.579,163.481,194.579z"/>
	<path d="M157.796,22.225c0-2.971-2.404-5.376-5.375-5.376h-31.271c-2.975,0-5.375,2.405-5.375,5.376c0,2.974,2.4,5.375,5.375,5.375
		h31.271C155.392,27.6,157.796,25.199,157.796,22.225z"/>
	<path d="M216.811,178.363c-2.973,0-5.375,2.504-5.375,5.475c0,5.927-4.82,10.752-10.751,10.752h-5.932
		c-2.972,0-5.376,2.404-5.376,5.375s2.404,5.376,5.376,5.376h5.932c11.857,0,21.5-9.649,21.5-21.503v-0.189
		C222.185,180.678,219.782,178.363,216.811,178.363z"/>
</g>
<g>
</g>
<g>
</g>
<g>
</g>
<g>
</g>
<g>
</g>
<g>
</g>
<g>
</g>
<g>
</g>
<g>
</g>
<g>
</g>
<g>
</g>
<g>
</g>
<g>
</g>
<g>
</g>
<g>
</g>
</svg>
