<?xml version="1.0"?>
<svg xmlns="http://www.w3.org/2000/svg" viewBox="0 0 512 512" fill="#fff" width="512" height="512"><g id="Solid"><path d="M183.96,391.2a7.928,7.928,0,0,1-.022,1.789L177.062,448h16.692L208,391.016V360H180.838Z"/><path d="M256,392a8.031,8.031,0,0,1-.161,1.6L244.746,448H261.16L280,390.718V360H256Z"/><path d="M96,128a8,8,0,0,1,8-8h8a8,8,0,0,0,0-16H52.53L33.7,135.376a11.355,11.355,0,0,0-1.616,4.415A10.8,10.8,0,0,0,42.794,152H72A24.028,24.028,0,0,0,96,128Z"/><path d="M408,128H192a8,8,0,0,1-6.4-3.2l-36-48A32.151,32.151,0,0,0,124,64H88A32.057,32.057,0,0,0,57.013,88H112a24,24,0,0,1,0,48h-.8a40.073,40.073,0,0,1-37.757,31.968l15.876,95.261A39.1,39.1,0,0,0,128,296a8,8,0,0,1,8,8,40.045,40.045,0,0,0,40,40h32a40.045,40.045,0,0,0,40-40h16a55.823,55.823,0,0,1-16.861,40H368.861A55.823,55.823,0,0,1,352,304h16a40.045,40.045,0,0,0,40,40h32a40.045,40.045,0,0,0,40-40V200A72.081,72.081,0,0,0,408,128Z"/><path d="M440,360H424l14.4,19.2a8,8,0,0,1,1.41,6.535L425.973,448h16.261l21.281-63.843-9.707-25.883A55.945,55.945,0,0,1,440,360Z"/><path d="M375.761,382.06a8.01,8.01,0,0,1-.171,4.47L355.1,448h15.7L400,382.3V360H370.246Z"/></g></svg>
